<svg width="65" height="65" viewBox="0 0 65 65" fill="none" xmlns="http://www.w3.org/2000/svg">
<rect width="65" height="65" rx="32.5" fill="#2E2622"/>
<path d="M22.9405 32.6313C23.0251 32.7329 23.1267 32.8472 23.2451 32.9741C23.2959 33.0164 23.3298 33.0503 23.3467 33.0757C23.8799 33.6004 24.5104 34.214 25.2383 34.9165L25.2256 34.9292C25.2764 34.98 25.3293 35.0329 25.3843 35.0879C25.4393 35.1429 25.4922 35.1958 25.543 35.2466L25.5684 35.2212C25.89 35.5343 26.2222 35.8496 26.565 36.167C26.9077 36.4844 27.2526 36.8039 27.5996 37.1255L27.5489 37.1763C27.6081 37.2271 27.6652 37.2778 27.7202 37.3286C27.7753 37.3794 27.8324 37.4302 27.8916 37.481L27.9424 37.4302C28.2979 37.7518 28.6491 38.0692 28.9961 38.3823C29.3431 38.6955 29.6817 38.9959 30.0117 39.2837L29.961 39.3472C30.0202 39.3979 30.0773 39.4466 30.1323 39.4932C30.1874 39.5397 30.2445 39.5884 30.3037 39.6392L30.3545 39.5884C30.7946 39.9608 31.1839 40.2824 31.5225 40.5532C31.8102 40.7902 32.1403 40.9129 32.5127 40.9214C32.8851 40.9299 33.2194 40.8198 33.5156 40.5913C34.1673 40.1004 34.8592 39.5291 35.5913 38.8774C36.3234 38.2257 37.0598 37.5487 37.8003 36.8462C38.5409 36.1437 39.2434 35.4645 39.9077 34.8086C40.5721 34.1527 41.154 33.575 41.6533 33.0757C42.1188 32.6102 42.5462 32.1151 42.9356 31.5903C43.3418 31.0317 43.7058 30.452 44.0274 29.8511C44.5267 28.8862 44.8801 27.8981 45.0874 26.8867C45.2948 25.8753 45.3223 24.8936 45.1699 23.9414C45.0176 22.9893 44.6579 22.1175 44.0908 21.3262C43.5238 20.5348 42.7113 19.8768 41.6533 19.3521C40.5615 18.8019 39.5269 18.529 38.5493 18.5332C37.5718 18.5374 36.681 18.7131 35.877 19.0601C35.0729 19.4071 34.3747 19.8218 33.7823 20.3042C33.5199 20.5243 33.2808 20.7485 33.065 20.9771C32.8491 21.2056 32.6608 21.4256 32.5 21.6372C32.3392 21.4256 32.1509 21.2056 31.9351 20.9771C31.7193 20.7485 31.4802 20.5243 31.2178 20.3042C30.6338 19.8218 29.9377 19.4071 29.1294 19.0601C28.3212 18.7131 27.4304 18.5374 26.4571 18.5332C25.4837 18.529 24.447 18.8019 23.3467 19.3521C21.8233 20.1138 20.7992 21.1463 20.2744 22.4497C19.7497 23.7531 19.6101 25.1284 19.8555 26.5757C19.8809 26.7534 19.9147 26.9312 19.9571 27.1089C20.1771 28.0653 20.5368 29.0174 21.0362 29.9653C21.1208 30.1092 21.2012 30.2446 21.2774 30.3716C21.7429 31.1841 22.2972 31.9373 22.9405 32.6313ZM32.1446 23.4272L24.2354 31.3364C23.5921 30.6255 23.0547 29.8553 22.6231 29.0259L29.9864 21.6626C30.2064 21.8403 30.4053 22.0202 30.583 22.2021C30.7608 22.3841 30.9131 22.5597 31.0401 22.729C31.3194 23.1014 31.6875 23.3341 32.1446 23.4272ZM22.4073 28.5942C21.9164 27.5617 21.6371 26.5545 21.5694 25.5728C21.5694 25.5643 21.5694 25.5537 21.5694 25.541C21.5694 25.5283 21.5694 25.5135 21.5694 25.4966L26.6983 20.3804C26.9945 20.3804 27.2823 20.4121 27.5615 20.4756C27.8408 20.5391 28.1032 20.6174 28.3487 20.7104C28.7888 20.8797 29.2119 21.104 29.6182 21.3833L22.4073 28.5942ZM21.5694 24.8618C21.6117 24.0409 21.8381 23.2982 22.2486 22.6338C22.659 21.9694 23.3002 21.4214 24.1719 20.9897C24.7897 20.6766 25.4033 20.4819 26.0127 20.4058L21.5694 24.8618ZM31.6621 38.2935L43.2656 26.6772C43.071 27.5575 42.724 28.4419 42.2246 29.3306C41.7253 30.2192 41.1032 31.036 40.3584 31.7808C39.8591 32.2801 39.2878 32.8472 38.6446 33.4819C38.0013 34.1167 37.3264 34.7705 36.6197 35.4434C35.9129 36.1162 35.2105 36.7637 34.5122 37.3857C33.814 38.0078 33.1602 38.5558 32.5508 39.0298C32.28 38.8097 31.9837 38.5643 31.6621 38.2935ZM43.4053 25.9028L31.3067 37.9888C30.9851 37.701 30.6486 37.4027 30.2974 37.0938C29.9462 36.7848 29.5928 36.4653 29.2373 36.1353L42.7451 22.6274C43.0244 23.0506 43.217 23.5098 43.3228 24.0049C43.4286 24.5 43.4645 25.0226 43.4307 25.5728C43.4222 25.6828 43.4138 25.7928 43.4053 25.9028ZM28.8946 35.8306C28.5476 35.509 28.2027 35.1895 27.8599 34.8721C27.5171 34.5547 27.1849 34.2394 26.8633 33.9263L40.1172 20.6724C40.3542 20.757 40.5954 20.8628 40.8408 20.9897C41.5179 21.3283 42.0638 21.7472 42.4785 22.2466L28.8946 35.8306ZM26.5332 33.6216C25.8308 32.9445 25.2002 32.3309 24.6416 31.7808C24.5993 31.73 24.5655 31.6961 24.5401 31.6792L32.7793 23.4399C33.2702 23.3638 33.668 23.1268 33.9727 22.729C34.2266 22.3905 34.5842 22.0286 35.0454 21.6436C35.5067 21.2585 36.042 20.9474 36.6514 20.7104C37.0746 20.5496 37.5358 20.4438 38.0352 20.3931C38.5345 20.3423 39.0635 20.3888 39.6221 20.5327L26.5332 33.6216Z" fill="#E9B44C"/>
</svg>
