<svg width="65" height="65" viewBox="0 0 65 65" fill="none" xmlns="http://www.w3.org/2000/svg">
<rect width="65" height="65" rx="32.5" fill="#2E2622"/>
<path d="M33.4141 18.7808H42.5674C43.2445 18.7808 43.8602 18.9458 44.4146 19.2759C44.9689 19.606 45.409 20.0482 45.7349 20.6025C46.0607 21.1569 46.2237 21.7726 46.2237 22.4497V33.4185H45.7666C45.3773 33.4185 45.0472 33.5602 44.7764 33.8438C44.5056 34.1273 44.3786 34.4679 44.3955 34.8657C44.4125 35.2297 44.5606 35.5386 44.8399 35.7925C45.1192 36.0464 45.445 36.1733 45.8174 36.1733H46.1221C45.9698 36.6981 45.6672 37.1361 45.2144 37.4873C44.7616 37.8385 44.2474 38.0142 43.6719 38.0142H43.4561C43.473 37.8534 43.4815 37.6968 43.4815 37.5444C43.4815 36.7827 43.2974 36.0908 42.9292 35.4688C42.5611 34.8467 42.0638 34.3494 41.4375 33.9771C40.8112 33.6047 40.1214 33.4185 39.3682 33.4185C38.6065 33.4185 37.9146 33.6047 37.2925 33.9771C36.6704 34.3494 36.1732 34.8467 35.8008 35.4688C35.4284 36.0908 35.2422 36.7827 35.2422 37.5444C35.2422 37.6968 35.2549 37.8534 35.2803 38.0142H29.7324C29.7494 37.8534 29.7578 37.6968 29.7578 37.5444C29.7578 36.7827 29.5716 36.0908 29.1992 35.4688C28.8268 34.8467 28.3296 34.3494 27.7075 33.9771C27.0855 33.6047 26.3978 33.4185 25.6446 33.4185C24.8828 33.4185 24.1909 33.6047 23.5689 33.9771C22.9468 34.3494 22.4496 34.8467 22.0772 35.4688C21.7048 36.0908 21.5186 36.7827 21.5186 37.5444C21.5186 37.6968 21.527 37.8534 21.544 38.0142H21.3155C20.7399 38.0142 20.2279 37.8385 19.7793 37.4873C19.3308 37.1361 19.0303 36.6981 18.878 36.1733H19.6143C19.8851 36.1733 20.1179 36.076 20.3125 35.8813C20.5072 35.6867 20.6045 35.4497 20.6045 35.1704V33.5073C20.6045 33.2365 20.5072 33.0016 20.3125 32.8027C20.1179 32.6038 19.8851 32.5044 19.6143 32.5044H18.7764V31.5903C18.7764 31.3872 18.7976 31.2074 18.8399 31.0508C18.8822 30.8942 18.9372 30.7397 19.0049 30.5874L19.0176 30.5493L22.1153 24.6587C22.3268 24.2609 22.6273 23.9456 23.0166 23.7129C23.4059 23.4801 23.8249 23.3638 24.2735 23.3638H29.7578V22.4497C29.7578 21.7726 29.9229 21.1569 30.253 20.6025C30.583 20.0482 31.0253 19.606 31.5796 19.2759C32.134 18.9458 32.7455 18.7808 33.4141 18.7808ZM31.586 31.5903H44.3955V22.4497C44.3955 21.9419 44.2178 21.5081 43.8623 21.1484C43.5069 20.7887 43.0752 20.6089 42.5674 20.6089H33.4141C32.9063 20.6089 32.4746 20.7887 32.1192 21.1484C31.7637 21.5081 31.586 21.9419 31.586 22.4497V31.5903ZM30.6719 31.5903V25.1919H24.2735C24.028 25.1919 23.8461 25.2977 23.7276 25.5093L23.4229 26.1187H26C26.2793 26.1187 26.5184 26.216 26.7173 26.4106C26.9162 26.6053 27.0156 26.8423 27.0156 27.1216V29.6733C27.0156 29.9526 26.9162 30.1896 26.7173 30.3843C26.5184 30.5789 26.2793 30.6763 26 30.6763H21.0108L20.668 31.3491C20.6426 31.3999 20.6257 31.4422 20.6172 31.4761C20.6087 31.5099 20.6045 31.548 20.6045 31.5903H30.6719ZM28.8438 37.5444C28.8438 36.952 28.6999 36.4146 28.4121 35.9321C28.1244 35.4497 27.7372 35.0646 27.2505 34.7769C26.7639 34.4891 26.2285 34.3452 25.6446 34.3452C25.0521 34.3452 24.5126 34.4891 24.0259 34.7769C23.5392 35.0646 23.152 35.4497 22.8643 35.9321C22.5765 36.4146 22.4326 36.952 22.4326 37.5444C22.4326 38.1284 22.5765 38.6637 22.8643 39.1504C23.152 39.637 23.5392 40.0243 24.0259 40.312C24.5126 40.5998 25.0521 40.7437 25.6446 40.7437C26.2285 40.7437 26.7639 40.5998 27.2505 40.312C27.7372 40.0243 28.1244 39.637 28.4121 39.1504C28.6999 38.6637 28.8438 38.1284 28.8438 37.5444ZM25.6446 38.9155C25.2637 38.9155 24.94 38.7822 24.6734 38.5156C24.4068 38.249 24.2735 37.9253 24.2735 37.5444C24.2735 37.1636 24.4068 36.8398 24.6734 36.5732C24.94 36.3066 25.2637 36.1733 25.6446 36.1733C26.017 36.1733 26.3386 36.3066 26.6094 36.5732C26.8802 36.8398 27.0156 37.1636 27.0156 37.5444C27.0156 37.9253 26.8802 38.249 26.6094 38.5156C26.3386 38.7822 26.017 38.9155 25.6446 38.9155ZM42.5674 37.5444C42.5674 36.952 42.4235 36.4146 42.1358 35.9321C41.848 35.4497 41.4608 35.0646 40.9741 34.7769C40.4875 34.4891 39.9522 34.3452 39.3682 34.3452C38.7757 34.3452 38.2362 34.4891 37.7495 34.7769C37.2629 35.0646 36.8757 35.4497 36.5879 35.9321C36.3002 36.4146 36.1563 36.952 36.1563 37.5444C36.1563 38.1284 36.3002 38.6637 36.5879 39.1504C36.8757 39.637 37.2629 40.0243 37.7495 40.312C38.2362 40.5998 38.7757 40.7437 39.3682 40.7437C39.9522 40.7437 40.4875 40.5998 40.9741 40.312C41.4608 40.0243 41.848 39.637 42.1358 39.1504C42.4235 38.6637 42.5674 38.1284 42.5674 37.5444ZM39.3682 38.9155C38.9873 38.9155 38.6636 38.7822 38.397 38.5156C38.1304 38.249 37.9971 37.9253 37.9971 37.5444C37.9971 37.1636 38.1304 36.8398 38.397 36.5732C38.6636 36.3066 38.9873 36.1733 39.3682 36.1733C39.7406 36.1733 40.0622 36.3066 40.333 36.5732C40.6039 36.8398 40.7393 37.1636 40.7393 37.5444C40.7393 37.9253 40.6039 38.249 40.333 38.5156C40.0622 38.7822 39.7406 38.9155 39.3682 38.9155Z" fill="#E9B44C"/>
</svg>
