<svg width="65" height="65" viewBox="0 0 65 65" fill="none" xmlns="http://www.w3.org/2000/svg">
<rect width="65" height="65" rx="32.5" fill="#2E2622"/>
<path d="M26.6602 15.1245H19.6904C19.6904 15.4292 19.7116 15.7339 19.7539 16.0386C19.9062 17.0965 20.285 18.0508 20.8901 18.9014C21.4953 19.752 22.2612 20.4248 23.188 20.9199C24.1147 21.415 25.1282 21.6626 26.2285 21.6626H30.0625V32.7583C28.8776 33.063 27.8175 33.6004 26.8823 34.3706C25.9471 35.1408 25.2108 36.0739 24.6733 37.1699C24.1359 38.266 23.8672 39.453 23.8672 40.731H40.3203C40.3203 39.3429 40.0072 38.0649 39.3809 36.897C38.7546 35.729 37.904 34.762 36.8291 33.9961C35.7542 33.2301 34.5439 32.7583 33.1982 32.5806V25.7505H38.7715C39.8717 25.7505 40.8852 25.5008 41.812 25.0015C42.7388 24.5021 43.5068 23.8293 44.1162 22.9829C44.7256 22.1366 45.1022 21.1802 45.2461 20.1138C45.2884 19.8091 45.3096 19.5044 45.3096 19.1997H38.3525C38.2256 19.1997 38.1071 19.1997 37.9971 19.1997C37.8109 19.2166 37.6247 19.2378 37.4385 19.2632C36.8037 19.3478 36.2049 19.5192 35.6421 19.7773C35.0793 20.0355 34.5693 20.3634 34.1123 20.7612C34.1038 20.7697 34.0954 20.776 34.0869 20.7803C34.0784 20.7845 34.07 20.7909 34.0615 20.7993C33.8922 20.9432 33.7357 21.0955 33.5918 21.2563L33.5664 21.2817C33.4479 21.4087 33.3379 21.5356 33.2363 21.6626L33.1982 21.7134V21.2817H33.1855C33.1686 21.0024 33.1348 20.7274 33.084 20.4565C32.8978 19.4494 32.4979 18.5438 31.8843 17.7397C31.2707 16.9357 30.5132 16.2988 29.6118 15.8291C28.7104 15.3594 27.7266 15.1245 26.6602 15.1245ZM32.2842 32.5171C32.1995 32.5086 32.1361 32.5044 32.0937 32.5044C31.7129 32.5044 31.3447 32.5298 30.9893 32.5806V20.7485H26.2285C25.2975 20.7485 24.4385 20.5412 23.6514 20.1265C22.8643 19.7118 22.2083 19.1489 21.6836 18.438C21.1588 17.7271 20.8245 16.9272 20.6807 16.0386H26.6602C27.6588 16.0386 28.5729 16.2756 29.4023 16.7495C30.2318 17.2235 30.9025 17.8604 31.4145 18.6602C31.9266 19.46 32.2122 20.3507 32.2715 21.3325L32.2842 21.4595V24.3667L33.9219 22.272C34.4043 21.6541 35.001 21.1527 35.7119 20.7676C36.4228 20.3825 37.193 20.1646 38.0225 20.1138H44.3193C44.1754 21.0109 43.8411 21.8149 43.3164 22.5259C42.7917 23.2368 42.1357 23.7996 41.3486 24.2144C40.5615 24.6291 39.7025 24.8364 38.7715 24.8364H32.2842V32.5171Z" fill="#E9B44C"/>
</svg>
